<svg width="299" height="816" viewBox="0 0 299 816" fill="none" xmlns="http://www.w3.org/2000/svg">
<circle cx="147.172" cy="412.47" r="50" fill="#F1F1F1"/>
<circle cx="32.5" cy="32.5" r="32.5" transform="matrix(1 0 0 -1 117.172 575.235)" fill="#F1F1F1"/>
<path d="M280.917 373.98L149.188 0.764893L231.045 370.68C238.378 403.815 226.448 438.256 200.192 459.757L129.432 517.703C125.817 520.663 124.734 525.732 126.823 529.912L145.008 566.28C147.36 570.986 152.957 573.063 157.81 571.034L172.5 564.89L263.02 464.058C285.009 439.564 291.873 405.019 280.917 373.98Z" fill="#F1F1F1" stroke="#F1F1F1"/>
<circle cx="32.5" cy="32.5" r="32.5" transform="matrix(-1 0 0 1 182.172 241)" fill="#F1F1F1"/>
<path d="M18.4274 442.255L150.157 815.47L68.2989 445.555C60.9666 412.421 72.896 377.979 99.152 356.478L169.912 298.533C173.528 295.572 174.611 290.503 172.521 286.324L154.337 249.955C151.984 245.25 146.388 243.172 141.534 245.202L126.844 251.345L36.3242 352.177C14.3351 376.671 7.47179 411.216 18.4274 442.255Z" fill="#F1F1F1" stroke="#F1F1F1"/>
</svg>
